<?xml version="1.0" standalone="no"?>
<!DOCTYPE svg PUBLIC "-//W3C//DTD SVG 20010904//EN"
 "http://www.w3.org/TR/2001/REC-SVG-20010904/DTD/svg10.dtd">
<svg version="1.0" xmlns="http://www.w3.org/2000/svg"
 width="135.000000pt" height="136.000000pt" viewBox="0 0 135.000000 136.000000"
 preserveAspectRatio="xMidYMid meet">

<g transform="translate(0.000000,136.000000) scale(0.100000,-0.100000)"
fill="#000000" stroke="none">
<path d="M470 715 l0 -265 90 0 90 0 0 79 0 78 82 5 c49 3 84 10 86 16 2 7 10
12 17 12 18 0 75 58 75 76 0 8 5 14 10 14 6 0 10 9 10 20 0 11 5 20 10 20 6 0
10 14 10 30 0 17 -4 30 -10 30 -5 0 -10 14 -10 30 0 17 -4 30 -10 30 -5 0 -10
7 -10 15 0 9 -8 19 -17 22 -10 4 -24 13 -31 20 -7 7 -27 13 -43 13 -16 0 -29
5 -29 10 0 6 -60 10 -160 10 l-160 0 0 -265z m248 139 c12 -4 22 -13 22 -20 0
-8 5 -14 10 -14 6 0 10 -11 10 -25 0 -14 -4 -25 -9 -25 -5 0 -11 -9 -14 -20
-4 -16 -14 -20 -46 -20 l-41 0 0 65 c0 61 1 65 23 65 12 0 32 -3 45 -6z"/>
</g>
</svg>
